<svg width="40" height="41" viewBox="0 0 40 41" fill="none" xmlns="http://www.w3.org/2000/svg">
<path d="M31.5185 31.1936C31.4531 31.2606 31.4653 31.3686 31.5267 31.4393C32.2374 32.2565 32.9413 33.0666 33.6597 33.891C33.7432 33.9869 33.7217 34.1345 33.6144 34.2027C32.7806 34.7317 31.9732 35.241 31.1384 35.7707C31.0498 35.8268 30.9332 35.8083 30.8666 35.7274C30.4879 35.2676 30.1167 34.8159 29.7456 34.3726C29.496 34.0633 29.2265 33.7639 28.987 33.4446C28.8471 33.2551 28.7074 33.2551 28.5078 33.335C27.3298 33.7441 26.1221 34.0732 24.8643 34.123C21.8098 34.2428 19.1743 33.325 17.0682 31.0304C16.8984 30.8409 16.8685 30.7111 16.9882 30.4815C17.6551 29.2478 18.3056 28.0057 18.9841 26.7115C19.0682 26.5511 19.3058 26.5678 19.375 26.7351C20.5711 29.6246 22.7601 30.6487 25.8756 30.0308C25.9372 30.0186 25.9635 29.9448 25.9232 29.8968C25.3256 29.1858 24.742 28.4958 24.1378 27.7788C24.0572 27.6831 24.0789 27.5384 24.184 27.4705C24.9915 26.9486 25.7795 26.4328 26.5878 25.9031C26.6753 25.8457 26.7919 25.8623 26.8598 25.9419C27.4358 26.617 27.9973 27.2773 28.5658 27.945C28.5984 27.9833 28.6574 27.9841 28.6902 27.9459C29.171 27.3847 29.4523 26.7513 29.5958 26.0719C29.9253 24.5356 29.8654 23.0191 29.3363 21.5424C28.5078 19.2179 26.4014 17.8911 23.936 18.1107C23.9176 18.1122 23.8992 18.1137 23.8806 18.1152C23.7201 18.1282 23.6107 17.9598 23.6853 17.8172C24.1443 16.9388 24.5891 16.102 25.034 15.2572C25.0739 15.1774 25.1238 15.1076 25.1637 15.0278C25.593 14.2197 25.593 14.2197 26.5113 14.4092C31.0232 15.367 34.1677 19.2678 34.2076 23.9569C34.2275 26.6703 33.4251 29.0865 31.5932 31.1269C31.5795 31.1423 31.5629 31.155 31.5468 31.1679C31.5372 31.1754 31.5279 31.1839 31.5185 31.1936Z" fill="currentColor"/>
<path d="M7.00548 34.2071C6.89805 34.2075 6.81641 34.1107 6.81641 34.0033C6.81641 27.4724 6.81641 20.9889 6.81641 14.4772C6.81641 14.3625 6.90945 14.2695 7.0242 14.2695C10.9779 14.2695 14.9138 14.2695 18.8768 14.2695C18.9915 14.2695 19.0846 14.3625 19.0846 14.4772C19.0846 15.5492 19.0846 16.6299 19.0846 17.7333C19.0846 17.848 18.9915 17.941 18.8768 17.941C16.4401 17.941 14.0117 17.941 11.5661 17.941C11.4514 17.941 11.3583 18.034 11.3583 18.1487C11.3583 19.402 11.3583 20.6184 11.3583 21.8636C11.3583 21.9782 11.4514 22.0712 11.5661 22.0712C13.8501 22.0712 16.1112 22.0712 18.4648 22.0712C18.5949 22.0712 18.6942 22.1897 18.6789 22.3188C18.6522 22.5441 18.6363 22.7529 18.5555 22.9293C18.1264 23.7972 17.6472 24.6453 17.2079 25.5132C17.0981 25.7328 16.9383 25.7626 16.7287 25.7626C15.0817 25.7526 13.4346 25.7626 11.7876 25.7626C11.7172 25.7626 11.6439 25.7626 11.5661 25.7626C11.4514 25.7626 11.3583 25.8556 11.3583 25.9703C11.3583 27.4154 11.3583 28.8373 11.3583 30.2739C11.3583 30.3885 11.4514 30.4815 11.5661 30.4815C12.4617 30.4815 13.3453 30.4815 14.2473 30.4815C14.3812 30.4815 14.4992 30.625 14.4328 30.7411C13.8739 31.8085 13.3148 32.886 12.7359 33.9436C12.666 34.0634 12.4763 34.1929 12.3466 34.1929C10.5946 34.2129 8.84264 34.203 7.08079 34.203C7.07092 34.203 7.06107 34.2038 7.05125 34.2048C7.03625 34.2063 7.02113 34.2071 7.00548 34.2071Z" fill="currentColor"/>
<path d="M26.2565 13.4857C26.1188 13.4685 26.0464 13.3181 26.1105 13.195C26.4351 12.571 26.7537 11.9548 27.0802 11.3463C28.0584 9.50064 29.0467 7.64498 30.0151 5.78932C30.1249 5.57982 30.2347 5.5 30.4742 5.5C31.732 5.50997 32.9898 5.5 34.2574 5.5C34.3572 5.5 34.457 5.50997 34.5568 5.51995C35.0162 5.59977 35.1358 5.91901 34.8264 6.25823C34.3374 6.77701 33.8284 7.27584 33.3291 7.77467C31.712 9.39089 30.055 10.9572 28.5078 12.6233C27.8369 13.3482 27.1413 13.5958 26.2565 13.4857Z" fill="currentColor"/>
<path d="M9.55147 6.88676C11.1287 6.88676 12.2067 7.99417 12.2067 9.63034C12.2067 11.2166 11.0987 12.354 9.56145 12.364C8.0242 12.3739 6.90619 11.2266 6.89619 9.64032C6.88621 8.03407 7.99424 6.89673 9.55147 6.88676Z" fill="currentColor"/>
<path d="M16.3994 6.88676C17.9567 6.88676 19.0247 8.00415 19.0247 9.62037C19.0247 11.2366 17.9168 12.3639 16.3495 12.3639C14.8222 12.3639 13.7142 11.1967 13.7142 9.62037C13.7142 8.0241 14.8322 6.88676 16.3994 6.88676Z" fill="currentColor"/>
</svg>
